<svg width="13" height="17" viewBox="0 0 13 17" fill="none" xmlns="http://www.w3.org/2000/svg">
<path d="M5 11C5 10.68 5.104 10.408 5.312 10.184C5.504 9.976 5.76 9.848 6.08 9.8C5.76 9.768 5.504 9.64 5.312 9.416C5.104 9.192 5 8.92 5 8.6C5 8.28 5.104 8.008 5.312 7.784C5.504 7.576 5.76 7.448 6.08 7.4C5.76 7.368 5.504 7.24 5.312 7.016C5.104 6.792 5 6.52 5 6.2C5 5.864 5.112 5.584 5.336 5.36C5.576 5.12 5.864 5 6.2 5C6.52 5 6.792 5.104 7.016 5.312C7.224 5.52 7.352 5.776 7.4 6.08C7.432 5.776 7.56 5.52 7.784 5.312C8.008 5.104 8.28 5 8.6 5C8.92 5 9.192 5.104 9.416 5.312C9.64 5.52 9.768 5.784 9.8 6.104C9.832 5.816 9.944 5.568 10.136 5.36C10.328 5.168 10.576 5.048 10.88 5C10.56 4.968 10.304 4.84 10.112 4.616C9.904 4.392 9.8 4.12 9.8 3.8C9.8 3.464 9.912 3.184 10.136 2.96C10.376 2.72 10.664 2.6 11 2.6C11.336 2.6 11.616 2.72 11.84 2.96C12.08 3.184 12.2 3.464 12.2 3.8C12.2 4.12 12.096 4.392 11.888 4.616C11.68 4.84 11.424 4.968 11.12 5C11.424 5.048 11.68 5.176 11.888 5.384C12.096 5.608 12.2 5.88 12.2 6.2C12.2 6.52 12.096 6.792 11.888 7.016C11.68 7.24 11.424 7.368 11.12 7.4C11.424 7.448 11.68 7.576 11.888 7.784C12.096 8.008 12.2 8.28 12.2 8.6C12.2 8.92 12.096 9.192 11.888 9.416C11.68 9.64 11.424 9.768 11.12 9.8C11.424 9.848 11.68 9.976 11.888 10.184C12.096 10.408 12.2 10.68 12.2 11C12.2 11.336 12.08 11.624 11.84 11.864C11.616 12.088 11.336 12.2 11 12.2C10.68 12.2 10.408 12.096 10.184 11.888C9.96 11.696 9.832 11.44 9.8 11.12C9.752 11.44 9.624 11.696 9.416 11.888C9.192 12.096 8.92 12.2 8.6 12.2C8.28 12.2 8.008 12.096 7.784 11.888C7.56 11.696 7.432 11.44 7.4 11.12C7.352 11.44 7.224 11.696 7.016 11.888C6.792 12.096 6.52 12.2 6.2 12.2C5.864 12.2 5.576 12.088 5.336 11.864C5.112 11.624 5 11.336 5 11ZM0.2 11C0.2 10.68 0.304 10.408 0.512 10.184C0.704 9.976 0.96 9.848 1.28 9.8C0.96 9.768 0.704 9.64 0.512 9.416C0.304 9.192 0.2 8.92 0.2 8.6C0.2 8.28 0.304 8.008 0.512 7.784C0.704 7.576 0.96 7.448 1.28 7.4C0.96 7.368 0.704 7.24 0.512 7.016C0.304 6.792 0.2 6.52 0.2 6.2C0.2 5.88 0.304 5.608 0.512 5.384C0.704 5.176 0.96 5.048 1.28 5C0.96 4.968 0.704 4.84 0.512 4.616C0.304 4.392 0.2 4.12 0.2 3.8C0.2 3.464 0.312 3.184 0.536 2.96C0.776 2.72 1.064 2.6 1.4 2.6C1.736 2.6 2.016 2.72 2.24 2.96C2.48 3.184 2.6 3.464 2.6 3.8C2.6 4.12 2.496 4.392 2.288 4.616C2.08 4.84 1.824 4.968 1.52 5C1.824 5.048 2.08 5.176 2.288 5.384C2.496 5.608 2.6 5.88 2.6 6.2C2.6 6.52 2.496 6.792 2.288 7.016C2.08 7.24 1.824 7.368 1.52 7.4C1.824 7.448 2.08 7.576 2.288 7.784C2.496 8.008 2.6 8.28 2.6 8.6C2.6 8.92 2.496 9.192 2.288 9.416C2.08 9.64 1.824 9.768 1.52 9.8C1.824 9.848 2.08 9.976 2.288 10.184C2.496 10.408 2.6 10.68 2.6 11C2.6 11.32 2.496 11.592 2.288 11.816C2.08 12.04 1.824 12.168 1.52 12.2C1.824 12.248 2.08 12.376 2.288 12.584C2.496 12.808 2.6 13.08 2.6 13.4C2.6 13.736 2.48 14.024 2.24 14.264C2.016 14.488 1.736 14.6 1.4 14.6C1.064 14.6 0.776 14.488 0.536 14.264C0.312 14.024 0.2 13.736 0.2 13.4C0.2 13.08 0.304 12.808 0.512 12.584C0.704 12.376 0.96 12.248 1.28 12.2C0.96 12.168 0.704 12.04 0.512 11.816C0.304 11.592 0.2 11.32 0.2 11ZM2.6 15.8C2.6 15.464 2.712 15.184 2.936 14.96C3.176 14.72 3.464 14.6 3.8 14.6C4.136 14.6 4.416 14.72 4.64 14.96C4.848 15.168 4.968 15.416 5 15.704C5.016 15.416 5.128 15.168 5.336 14.96C5.576 14.72 5.864 14.6 6.2 14.6C6.536 14.6 6.816 14.72 7.04 14.96C7.248 15.168 7.368 15.416 7.4 15.704C7.416 15.416 7.528 15.168 7.736 14.96C7.976 14.72 8.264 14.6 8.6 14.6C8.936 14.6 9.216 14.72 9.44 14.96C9.648 15.168 9.768 15.416 9.8 15.704C9.816 15.416 9.928 15.168 10.136 14.96C10.376 14.72 10.664 14.6 11 14.6C11.336 14.6 11.616 14.72 11.84 14.96C12.08 15.184 12.2 15.464 12.2 15.8C12.2 16.136 12.08 16.424 11.84 16.664C11.616 16.888 11.336 17 11 17C10.68 17 10.408 16.896 10.184 16.688C9.96 16.496 9.832 16.24 9.8 15.92C9.752 16.24 9.624 16.496 9.416 16.688C9.192 16.896 8.92 17 8.6 17C8.28 17 8.008 16.896 7.784 16.688C7.56 16.496 7.432 16.24 7.4 15.92C7.352 16.24 7.224 16.496 7.016 16.688C6.792 16.896 6.52 17 6.2 17C5.88 17 5.608 16.896 5.384 16.688C5.16 16.496 5.032 16.24 5 15.92C4.952 16.24 4.824 16.496 4.616 16.688C4.392 16.896 4.12 17 3.8 17C3.464 17 3.176 16.888 2.936 16.664C2.712 16.424 2.6 16.136 2.6 15.8ZM2.6 1.4C2.6 1.064 2.712 0.783999 2.936 0.559999C3.176 0.319999 3.464 0.199999 3.8 0.199999C4.12 0.199999 4.392 0.303999 4.616 0.511999C4.84 0.719999 4.968 0.983999 5 1.304C5.032 0.983999 5.16 0.719999 5.384 0.511999C5.608 0.303999 5.88 0.199999 6.2 0.199999C6.536 0.199999 6.816 0.319999 7.04 0.559999C7.248 0.767999 7.368 1.016 7.4 1.304C7.416 1.016 7.528 0.767999 7.736 0.559999C7.976 0.319999 8.264 0.199999 8.6 0.199999C8.936 0.199999 9.216 0.319999 9.44 0.559999C9.68 0.783999 9.8 1.064 9.8 1.4C9.8 1.736 9.68 2.024 9.44 2.264C9.216 2.488 8.936 2.6 8.6 2.6C8.28 2.6 8.008 2.496 7.784 2.288C7.56 2.096 7.432 1.84 7.4 1.52C7.352 1.84 7.224 2.096 7.016 2.288C6.792 2.496 6.52 2.6 6.2 2.6C5.88 2.6 5.608 2.496 5.384 2.288C5.16 2.096 5.032 1.84 5 1.52C4.952 1.84 4.824 2.096 4.616 2.288C4.392 2.496 4.12 2.6 3.8 2.6C3.464 2.6 3.176 2.488 2.936 2.264C2.712 2.024 2.6 1.736 2.6 1.4ZM9.8 8.6C9.8 8.28 9.904 8.008 10.112 7.784C10.304 7.576 10.56 7.448 10.88 7.4C10.576 7.368 10.328 7.256 10.136 7.064C9.944 6.872 9.832 6.624 9.8 6.32C9.752 6.64 9.624 6.896 9.416 7.088C9.192 7.296 8.92 7.4 8.6 7.4C8.28 7.4 8.008 7.296 7.784 7.088C7.56 6.896 7.432 6.64 7.4 6.32C7.352 6.624 7.224 6.872 7.016 7.064C6.824 7.256 6.592 7.368 6.32 7.4C6.624 7.448 6.88 7.576 7.088 7.784C7.296 8.008 7.4 8.28 7.4 8.6C7.4 8.92 7.296 9.192 7.088 9.416C6.88 9.64 6.624 9.768 6.32 9.8C6.624 9.848 6.88 9.976 7.088 10.184C7.264 10.392 7.368 10.632 7.4 10.904C7.416 10.616 7.528 10.368 7.736 10.16C7.976 9.92 8.264 9.8 8.6 9.8C8.936 9.8 9.216 9.92 9.44 10.16C9.68 10.384 9.8 10.664 9.8 11C9.8 10.68 9.904 10.408 10.112 10.184C10.304 9.976 10.56 9.848 10.88 9.8C10.56 9.768 10.304 9.64 10.112 9.416C9.904 9.192 9.8 8.92 9.8 8.6Z" fill="#fff"/>
</svg>
