<svg width="104" height="104" viewBox="0 0 104 104" fill="none" xmlns="http://www.w3.org/2000/svg">
<g clip-path="url(#clip0_534_298)">
<circle cx="65.0711" cy="87.6274" r="5" transform="rotate(-45 65.0711 87.6274)" fill="#D71921" fill-opacity="0.24"/>
<circle cx="72.8494" cy="79.8493" r="5" transform="rotate(-45 72.8494 79.8493)" fill="#D71921" fill-opacity="0.24"/>
<circle cx="80.6277" cy="72.0711" r="5" transform="rotate(-45 80.6277 72.0711)" fill="#D71921" fill-opacity="0.24"/>
<circle cx="49.0711" cy="87.1838" r="5" transform="rotate(-45 49.0711 87.1838)" fill="#D71921" fill-opacity="0.24"/>
<circle cx="56.8494" cy="79.4057" r="5" transform="rotate(-45 56.8494 79.4057)" fill="#D71921" fill-opacity="0.24"/>
<circle cx="64.6277" cy="71.6275" r="5" transform="rotate(-45 64.6277 71.6275)" fill="#D71921" fill-opacity="0.24"/>
<circle cx="72.406" cy="63.8493" r="5" transform="rotate(-45 72.406 63.8493)" fill="#D71921" fill-opacity="0.24"/>
<circle cx="80.1834" cy="56.0711" r="5" transform="rotate(-45 80.1834 56.0711)" fill="#D71921" fill-opacity="0.24"/>
<circle cx="37.0711" cy="82.9619" r="5" transform="rotate(-45 37.0711 82.9619)" fill="#D71921" fill-opacity="0.24"/>
<circle cx="44.8494" cy="75.1838" r="5" transform="rotate(-45 44.8494 75.1838)" fill="#D71921" fill-opacity="0.24"/>
<circle cx="52.6277" cy="67.4056" r="5" transform="rotate(-45 52.6277 67.4056)" fill="#D71921" fill-opacity="0.24"/>
<circle cx="60.406" cy="59.6274" r="5" transform="rotate(-45 60.406 59.6274)" fill="#D71921" fill-opacity="0.24"/>
<circle cx="68.1834" cy="51.8492" r="5" transform="rotate(-45 68.1834 51.8492)" fill="#D71921" fill-opacity="0.24"/>
<circle cx="75.9617" cy="44.0711" r="5" transform="rotate(-45 75.9617 44.0711)" fill="#D71921" fill-opacity="0.24"/>
<circle cx="31.0711" cy="73.9619" r="5" transform="rotate(-45 31.0711 73.9619)" fill="#D71921" fill-opacity="0.24"/>
<circle cx="38.8494" cy="66.1837" r="5" transform="rotate(-45 38.8494 66.1837)" fill="#D71921" fill-opacity="0.24"/>
<circle cx="46.6277" cy="58.4056" r="5" transform="rotate(-45 46.6277 58.4056)" fill="#D71921" fill-opacity="0.24"/>
<circle cx="54.406" cy="50.6274" r="5" transform="rotate(-45 54.406 50.6274)" fill="#D71921" fill-opacity="0.24"/>
<circle cx="62.1834" cy="42.8492" r="5" transform="rotate(-45 62.1834 42.8492)" fill="#D71921" fill-opacity="0.24"/>
<circle cx="69.9617" cy="35.071" r="5" transform="rotate(-45 69.9617 35.071)" fill="#D71921" fill-opacity="0.24"/>
<circle cx="24.0711" cy="64.9619" r="5" transform="rotate(-45 24.0711 64.9619)" fill="#D71921" fill-opacity="0.24"/>
<circle cx="31.8494" cy="57.1837" r="5" transform="rotate(-45 31.8494 57.1837)" fill="#D71921" fill-opacity="0.24"/>
<circle cx="39.6277" cy="49.4056" r="5" transform="rotate(-45 39.6277 49.4056)" fill="#D71921" fill-opacity="0.24"/>
<circle cx="47.406" cy="41.6274" r="5" transform="rotate(-45 47.406 41.6274)" fill="#D71921" fill-opacity="0.24"/>
<circle cx="55.1834" cy="33.8492" r="5" transform="rotate(-45 55.1834 33.8492)" fill="#D71921" fill-opacity="0.24"/>
<circle cx="62.9617" cy="26.071" r="5" transform="rotate(-45 62.9617 26.071)" fill="#D71921" fill-opacity="0.24"/>
<circle cx="21.0711" cy="51.9619" r="5" transform="rotate(-45 21.0711 51.9619)" fill="#D71921" fill-opacity="0.24"/>
<circle cx="28.8494" cy="44.1837" r="5" transform="rotate(-45 28.8494 44.1837)" fill="#D71921" fill-opacity="0.24"/>
<circle cx="36.6277" cy="36.4056" r="5" transform="rotate(-45 36.6277 36.4056)" fill="#D71921" fill-opacity="0.24"/>
<circle cx="52.1834" cy="20.8492" r="5" transform="rotate(-45 52.1834 20.8492)" fill="#D71921" fill-opacity="0.24"/>
<circle cx="59.9617" cy="13.071" r="5" transform="rotate(-45 59.9617 13.071)" fill="#D71921" fill-opacity="0.24"/>
<circle cx="52.0711" cy="5.07108" r="5" transform="rotate(-45 52.0711 5.07108)" fill="#D71921" fill-opacity="0.24"/>
<circle cx="31.0711" cy="26.0711" r="5" transform="rotate(-45 31.0711 26.0711)" fill="#D71921" fill-opacity="0.24"/>
<circle cx="23.0711" cy="34.0711" r="5" transform="rotate(-45 23.0711 34.0711)" fill="#D71921" fill-opacity="0.24"/>
</g>
<g clip-path="url(#clip1_534_298)">
<circle cx="66.7975" cy="89.98" r="3.36538" transform="rotate(-45 66.7975 89.98)" fill="#D71921"/>
<circle cx="72.0328" cy="84.7447" r="3.36538" transform="rotate(-45 72.0328 84.7447)" fill="#D71921"/>
<circle cx="77.2682" cy="79.5094" r="3.36538" transform="rotate(-45 77.2682 79.5094)" fill="#D71921"/>
<circle cx="56.0289" cy="89.6814" r="3.36538" transform="rotate(-45 56.0289 89.6814)" fill="#D71921"/>
<circle cx="61.2643" cy="84.4461" r="3.36538" transform="rotate(-45 61.2643 84.4461)" fill="#D71921"/>
<circle cx="66.4996" cy="79.2108" r="3.36538" transform="rotate(-45 66.4996 79.2108)" fill="#D71921"/>
<circle cx="71.735" cy="73.9756" r="3.36538" transform="rotate(-45 71.735 73.9756)" fill="#D71921"/>
<circle cx="76.9703" cy="68.7402" r="3.36538" transform="rotate(-45 76.9703 68.7402)" fill="#D71921"/>
<circle cx="47.9518" cy="86.8398" r="3.36538" transform="rotate(-45 47.9518 86.8398)" fill="#D71921"/>
<circle cx="53.1871" cy="81.6045" r="3.36538" transform="rotate(-45 53.1871 81.6045)" fill="#D71921"/>
<circle cx="58.4225" cy="76.3691" r="3.36538" transform="rotate(-45 58.4225 76.3691)" fill="#D71921"/>
<circle cx="63.6578" cy="71.1339" r="3.36538" transform="rotate(-45 63.6578 71.1339)" fill="#D71921"/>
<circle cx="68.8932" cy="65.8985" r="3.36538" transform="rotate(-45 68.8932 65.8985)" fill="#D71921"/>
<circle cx="74.1285" cy="60.6632" r="3.36538" transform="rotate(-45 74.1285 60.6632)" fill="#D71921"/>
<circle cx="43.9137" cy="80.782" r="3.36538" transform="rotate(-45 43.9137 80.782)" fill="#D71921"/>
<circle cx="49.149" cy="75.5467" r="3.36538" transform="rotate(-45 49.149 75.5467)" fill="#D71921"/>
<circle cx="54.3844" cy="70.3113" r="3.36538" transform="rotate(-45 54.3844 70.3113)" fill="#D71921"/>
<circle cx="59.6197" cy="65.0761" r="3.36538" transform="rotate(-45 59.6197 65.0761)" fill="#D71921"/>
<circle cx="64.8551" cy="59.8408" r="3.36538" transform="rotate(-45 64.8551 59.8408)" fill="#D71921"/>
<circle cx="70.0904" cy="54.6055" r="3.36538" transform="rotate(-45 70.0904 54.6055)" fill="#D71921"/>
<circle cx="39.2018" cy="74.7244" r="3.36538" transform="rotate(-45 39.2018 74.7244)" fill="#D71921"/>
<circle cx="44.4371" cy="69.489" r="3.36538" transform="rotate(-45 44.4371 69.489)" fill="#D71921"/>
<circle cx="49.6725" cy="64.2537" r="3.36538" transform="rotate(-45 49.6725 64.2537)" fill="#D71921"/>
<circle cx="54.9078" cy="59.0185" r="3.36538" transform="rotate(-45 54.9078 59.0185)" fill="#D71921"/>
<circle cx="60.1432" cy="53.7831" r="3.36538" transform="rotate(-45 60.1432 53.7831)" fill="#D71921"/>
<circle cx="65.3785" cy="48.5478" r="3.36538" transform="rotate(-45 65.3785 48.5478)" fill="#D71921"/>
<circle cx="37.1822" cy="65.9744" r="3.36538" transform="rotate(-45 37.1822 65.9744)" fill="#D71921"/>
<circle cx="42.4176" cy="60.739" r="3.36538" transform="rotate(-45 42.4176 60.739)" fill="#D71921"/>
<circle cx="47.6529" cy="55.5038" r="3.36538" transform="rotate(-45 47.6529 55.5038)" fill="#D71921"/>
<circle cx="58.1236" cy="45.0331" r="3.36538" transform="rotate(-45 58.1236 45.0331)" fill="#D71921"/>
<circle cx="63.359" cy="39.7978" r="3.36538" transform="rotate(-45 63.359 39.7978)" fill="#D71921"/>
<circle cx="58.0475" cy="34.4132" r="3.36538" transform="rotate(-45 58.0475 34.4132)" fill="#D71921"/>
<circle cx="43.9137" cy="48.5478" r="3.36538" transform="rotate(-45 43.9137 48.5478)" fill="#D71921"/>
<circle cx="38.5289" cy="53.9324" r="3.36538" transform="rotate(-45 38.5289 53.9324)" fill="#D71921"/>
</g>
<defs>
<clipPath id="clip0_534_298">
<rect width="104" height="104" fill="white"/>
</clipPath>
<clipPath id="clip1_534_298">
<rect width="70" height="70" fill="white" transform="translate(23 31)"/>
</clipPath>
</defs>
</svg>
