<svg width="19" height="6" viewBox="0 0 19 6" fill="none" xmlns="http://www.w3.org/2000/svg">
<path d="M0.8 1.6C0.8 1.376 0.874667 1.18933 1.024 1.04C1.184 0.879999 1.376 0.799999 1.6 0.799999C1.81333 0.799999 1.99467 0.869333 2.144 1.008C2.29333 1.14667 2.37867 1.32267 2.4 1.536C2.42133 1.32267 2.50667 1.14667 2.656 1.008C2.80533 0.869333 2.98667 0.799999 3.2 0.799999C3.424 0.799999 3.61067 0.879999 3.76 1.04C3.92 1.18933 4 1.376 4 1.6C4 1.376 4.07467 1.18933 4.224 1.04C4.384 0.879999 4.576 0.799999 4.8 0.799999C5.024 0.799999 5.21067 0.879999 5.36 1.04C5.52 1.18933 5.6 1.376 5.6 1.6C5.6 1.81333 5.53067 1.99467 5.392 2.144C5.25333 2.29333 5.08267 2.37867 4.88 2.4C5.08267 2.432 5.25333 2.51733 5.392 2.656C5.53067 2.80533 5.6 2.98667 5.6 3.2C5.6 3.41333 5.53067 3.59467 5.392 3.744C5.25333 3.89333 5.08267 3.97867 4.88 4C5.08267 4.032 5.25333 4.11733 5.392 4.256C5.53067 4.40533 5.6 4.58667 5.6 4.8C5.6 5.024 5.52 5.216 5.36 5.376C5.21067 5.52533 5.024 5.6 4.8 5.6C4.58667 5.6 4.40533 5.53067 4.256 5.392C4.10667 5.264 4.02133 5.09333 4 4.88C3.968 5.09333 3.88267 5.264 3.744 5.392C3.59467 5.53067 3.41333 5.6 3.2 5.6C2.98667 5.6 2.80533 5.53067 2.656 5.392C2.50667 5.264 2.42133 5.09333 2.4 4.88C2.368 5.09333 2.28267 5.264 2.144 5.392C1.99467 5.53067 1.81333 5.6 1.6 5.6C1.376 5.6 1.184 5.52533 1.024 5.376C0.874667 5.216 0.8 5.024 0.8 4.8C0.8 4.58667 0.869333 4.40533 1.008 4.256C1.136 4.11733 1.30667 4.032 1.52 4C1.30667 3.97867 1.136 3.89333 1.008 3.744C0.869333 3.59467 0.8 3.41333 0.8 3.2C0.8 2.98667 0.869333 2.80533 1.008 2.656C1.136 2.51733 1.30667 2.432 1.52 2.4C1.30667 2.37867 1.136 2.29333 1.008 2.144C0.869333 1.99467 0.8 1.81333 0.8 1.6ZM3.76 2.176C3.62133 2.304 3.46133 2.37867 3.28 2.4C3.46133 2.432 3.62133 2.512 3.76 2.64C3.89867 2.77867 3.97867 2.944 4 3.136C4.02133 2.944 4.096 2.77867 4.224 2.64C4.352 2.512 4.51733 2.432 4.72 2.4C4.51733 2.37867 4.352 2.304 4.224 2.176C4.096 2.048 4.02133 1.88267 4 1.68C3.968 1.88267 3.888 2.048 3.76 2.176ZM2.624 4.24C2.752 4.112 2.91733 4.032 3.12 4C2.91733 3.97867 2.752 3.904 2.624 3.776C2.496 3.648 2.42133 3.48267 2.4 3.28C2.368 3.48267 2.28267 3.648 2.144 3.776C2.016 3.904 1.86133 3.97867 1.68 4C1.86133 4.032 2.016 4.11733 2.144 4.256C2.28267 4.384 2.368 4.53867 2.4 4.72C2.42133 4.53867 2.496 4.37867 2.624 4.24ZM3.76 4.24C3.89867 4.37867 3.97867 4.544 4 4.736C4.02133 4.544 4.096 4.37867 4.224 4.24C4.352 4.112 4.51733 4.032 4.72 4C4.51733 3.97867 4.352 3.904 4.224 3.776C4.096 3.648 4.02133 3.48267 4 3.28C3.968 3.48267 3.88267 3.648 3.744 3.776C3.616 3.904 3.46133 3.97867 3.28 4C3.46133 4.032 3.62133 4.112 3.76 4.24ZM2.608 2.656C2.736 2.51733 2.90667 2.432 3.12 2.4C2.91733 2.37867 2.752 2.304 2.624 2.176C2.496 2.048 2.42133 1.88267 2.4 1.68C2.368 1.88267 2.28267 2.048 2.144 2.176C2.016 2.304 1.86133 2.37867 1.68 2.4C1.88267 2.432 2.05333 2.51733 2.192 2.656C2.30933 2.79467 2.37867 2.95467 2.4 3.136C2.41067 2.95467 2.48 2.79467 2.608 2.656ZM7.20625 1.6C7.20625 1.376 7.28092 1.18933 7.43025 1.04C7.59025 0.879999 7.78225 0.799999 8.00625 0.799999C8.21958 0.799999 8.40092 0.869333 8.55025 1.008C8.69958 1.14667 8.78492 1.32267 8.80625 1.536C8.82758 1.32267 8.91292 1.14667 9.06225 1.008C9.21158 0.869333 9.39292 0.799999 9.60625 0.799999C9.83025 0.799999 10.0169 0.879999 10.1663 1.04C10.3263 1.18933 10.4062 1.376 10.4062 1.6C10.4062 1.376 10.4809 1.18933 10.6302 1.04C10.7903 0.879999 10.9823 0.799999 11.2063 0.799999C11.4303 0.799999 11.6169 0.879999 11.7663 1.04C11.9263 1.18933 12.0063 1.376 12.0063 1.6C12.0063 1.81333 11.9369 1.99467 11.7983 2.144C11.6596 2.29333 11.4889 2.37867 11.2863 2.4C11.4889 2.432 11.6596 2.51733 11.7983 2.656C11.9369 2.80533 12.0063 2.98667 12.0063 3.2C12.0063 3.41333 11.9369 3.59467 11.7983 3.744C11.6596 3.89333 11.4889 3.97867 11.2863 4C11.4889 4.032 11.6596 4.11733 11.7983 4.256C11.9369 4.40533 12.0063 4.58667 12.0063 4.8C12.0063 5.024 11.9263 5.216 11.7663 5.376C11.6169 5.52533 11.4303 5.6 11.2063 5.6C10.9929 5.6 10.8116 5.53067 10.6623 5.392C10.5129 5.264 10.4276 5.09333 10.4062 4.88C10.3743 5.09333 10.2889 5.264 10.1503 5.392C10.0009 5.53067 9.81958 5.6 9.60625 5.6C9.39292 5.6 9.21158 5.53067 9.06225 5.392C8.91292 5.264 8.82758 5.09333 8.80625 4.88C8.77425 5.09333 8.68892 5.264 8.55025 5.392C8.40092 5.53067 8.21958 5.6 8.00625 5.6C7.78225 5.6 7.59025 5.52533 7.43025 5.376C7.28092 5.216 7.20625 5.024 7.20625 4.8C7.20625 4.58667 7.27558 4.40533 7.41425 4.256C7.54225 4.11733 7.71292 4.032 7.92625 4C7.71292 3.97867 7.54225 3.89333 7.41425 3.744C7.27558 3.59467 7.20625 3.41333 7.20625 3.2C7.20625 2.98667 7.27558 2.80533 7.41425 2.656C7.54225 2.51733 7.71292 2.432 7.92625 2.4C7.71292 2.37867 7.54225 2.29333 7.41425 2.144C7.27558 1.99467 7.20625 1.81333 7.20625 1.6ZM10.1663 2.176C10.0276 2.304 9.86758 2.37867 9.68625 2.4C9.86758 2.432 10.0276 2.512 10.1663 2.64C10.3049 2.77867 10.3849 2.944 10.4062 3.136C10.4276 2.944 10.5023 2.77867 10.6302 2.64C10.7583 2.512 10.9236 2.432 11.1263 2.4C10.9236 2.37867 10.7583 2.304 10.6302 2.176C10.5023 2.048 10.4276 1.88267 10.4062 1.68C10.3743 1.88267 10.2943 2.048 10.1663 2.176ZM9.03025 4.24C9.15825 4.112 9.32358 4.032 9.52625 4C9.32358 3.97867 9.15825 3.904 9.03025 3.776C8.90225 3.648 8.82758 3.48267 8.80625 3.28C8.77425 3.48267 8.68892 3.648 8.55025 3.776C8.42225 3.904 8.26758 3.97867 8.08625 4C8.26758 4.032 8.42225 4.11733 8.55025 4.256C8.68892 4.384 8.77425 4.53867 8.80625 4.72C8.82758 4.53867 8.90225 4.37867 9.03025 4.24ZM10.1663 4.24C10.3049 4.37867 10.3849 4.544 10.4062 4.736C10.4276 4.544 10.5023 4.37867 10.6302 4.24C10.7583 4.112 10.9236 4.032 11.1263 4C10.9236 3.97867 10.7583 3.904 10.6302 3.776C10.5023 3.648 10.4276 3.48267 10.4062 3.28C10.3743 3.48267 10.2889 3.648 10.1503 3.776C10.0223 3.904 9.86758 3.97867 9.68625 4C9.86758 4.032 10.0276 4.112 10.1663 4.24ZM9.01425 2.656C9.14225 2.51733 9.31292 2.432 9.52625 2.4C9.32358 2.37867 9.15825 2.304 9.03025 2.176C8.90225 2.048 8.82758 1.88267 8.80625 1.68C8.77425 1.88267 8.68892 2.048 8.55025 2.176C8.42225 2.304 8.26758 2.37867 8.08625 2.4C8.28892 2.432 8.45958 2.51733 8.59825 2.656C8.71558 2.79467 8.78492 2.95467 8.80625 3.136C8.81692 2.95467 8.88625 2.79467 9.01425 2.656ZM13.6125 1.6C13.6125 1.376 13.6872 1.18933 13.8365 1.04C13.9965 0.879999 14.1885 0.799999 14.4125 0.799999C14.6258 0.799999 14.8072 0.869333 14.9565 1.008C15.1058 1.14667 15.1912 1.32267 15.2125 1.536C15.2338 1.32267 15.3192 1.14667 15.4685 1.008C15.6178 0.869333 15.7992 0.799999 16.0125 0.799999C16.2365 0.799999 16.4232 0.879999 16.5725 1.04C16.7325 1.18933 16.8125 1.376 16.8125 1.6C16.8125 1.376 16.8872 1.18933 17.0365 1.04C17.1965 0.879999 17.3885 0.799999 17.6125 0.799999C17.8365 0.799999 18.0232 0.879999 18.1725 1.04C18.3325 1.18933 18.4125 1.376 18.4125 1.6C18.4125 1.81333 18.3432 1.99467 18.2045 2.144C18.0658 2.29333 17.8952 2.37867 17.6925 2.4C17.8952 2.432 18.0658 2.51733 18.2045 2.656C18.3432 2.80533 18.4125 2.98667 18.4125 3.2C18.4125 3.41333 18.3432 3.59467 18.2045 3.744C18.0658 3.89333 17.8952 3.97867 17.6925 4C17.8952 4.032 18.0658 4.11733 18.2045 4.256C18.3432 4.40533 18.4125 4.58667 18.4125 4.8C18.4125 5.024 18.3325 5.216 18.1725 5.376C18.0232 5.52533 17.8365 5.6 17.6125 5.6C17.3992 5.6 17.2178 5.53067 17.0685 5.392C16.9192 5.264 16.8338 5.09333 16.8125 4.88C16.7805 5.09333 16.6952 5.264 16.5565 5.392C16.4072 5.53067 16.2258 5.6 16.0125 5.6C15.7992 5.6 15.6178 5.53067 15.4685 5.392C15.3192 5.264 15.2338 5.09333 15.2125 4.88C15.1805 5.09333 15.0952 5.264 14.9565 5.392C14.8072 5.53067 14.6258 5.6 14.4125 5.6C14.1885 5.6 13.9965 5.52533 13.8365 5.376C13.6872 5.216 13.6125 5.024 13.6125 4.8C13.6125 4.58667 13.6818 4.40533 13.8205 4.256C13.9485 4.11733 14.1192 4.032 14.3325 4C14.1192 3.97867 13.9485 3.89333 13.8205 3.744C13.6818 3.59467 13.6125 3.41333 13.6125 3.2C13.6125 2.98667 13.6818 2.80533 13.8205 2.656C13.9485 2.51733 14.1192 2.432 14.3325 2.4C14.1192 2.37867 13.9485 2.29333 13.8205 2.144C13.6818 1.99467 13.6125 1.81333 13.6125 1.6ZM16.5725 2.176C16.4338 2.304 16.2738 2.37867 16.0925 2.4C16.2738 2.432 16.4338 2.512 16.5725 2.64C16.7112 2.77867 16.7912 2.944 16.8125 3.136C16.8338 2.944 16.9085 2.77867 17.0365 2.64C17.1645 2.512 17.3298 2.432 17.5325 2.4C17.3298 2.37867 17.1645 2.304 17.0365 2.176C16.9085 2.048 16.8338 1.88267 16.8125 1.68C16.7805 1.88267 16.7005 2.048 16.5725 2.176ZM15.4365 4.24C15.5645 4.112 15.7298 4.032 15.9325 4C15.7298 3.97867 15.5645 3.904 15.4365 3.776C15.3085 3.648 15.2338 3.48267 15.2125 3.28C15.1805 3.48267 15.0952 3.648 14.9565 3.776C14.8285 3.904 14.6738 3.97867 14.4925 4C14.6738 4.032 14.8285 4.11733 14.9565 4.256C15.0952 4.384 15.1805 4.53867 15.2125 4.72C15.2338 4.53867 15.3085 4.37867 15.4365 4.24ZM16.5725 4.24C16.7112 4.37867 16.7912 4.544 16.8125 4.736C16.8338 4.544 16.9085 4.37867 17.0365 4.24C17.1645 4.112 17.3298 4.032 17.5325 4C17.3298 3.97867 17.1645 3.904 17.0365 3.776C16.9085 3.648 16.8338 3.48267 16.8125 3.28C16.7805 3.48267 16.6952 3.648 16.5565 3.776C16.4285 3.904 16.2738 3.97867 16.0925 4C16.2738 4.032 16.4338 4.112 16.5725 4.24ZM15.4205 2.656C15.5485 2.51733 15.7192 2.432 15.9325 2.4C15.7298 2.37867 15.5645 2.304 15.4365 2.176C15.3085 2.048 15.2338 1.88267 15.2125 1.68C15.1805 1.88267 15.0952 2.048 14.9565 2.176C14.8285 2.304 14.6738 2.37867 14.4925 2.4C14.6952 2.432 14.8658 2.51733 15.0045 2.656C15.1218 2.79467 15.1912 2.95467 15.2125 3.136C15.2232 2.95467 15.2925 2.79467 15.4205 2.656Z" fill="#fff"/>
</svg>
