<svg width="43" height="38" viewBox="0 0 43 38" fill="none" xmlns="http://www.w3.org/2000/svg">
<circle cx="1.5" cy="13.5" r="1.5" fill="white"/>
<circle cx="5.5" cy="10.5" r="1.5" fill="white"/>
<circle cx="9.5" cy="12.5" r="1.5" fill="white"/>
<circle cx="12.5" cy="15.5" r="1.5" fill="white"/>
<circle cx="15.5" cy="18.5" r="1.5" fill="white"/>
<circle cx="9.5" cy="7.5" r="1.5" fill="white"/>
<circle cx="13.5" cy="4.5" r="1.5" fill="white"/>
<circle cx="17.5" cy="1.5" r="1.5" fill="white"/>
<circle cx="18.5" cy="5.5" r="1.5" fill="white"/>
<circle cx="21.5" cy="8.5" r="1.5" fill="white"/>
<circle cx="25.5" cy="10.5" r="1.5" fill="white"/>
<circle cx="29.5" cy="11.5" r="1.5" fill="white"/>
<circle cx="28.5" cy="15.5" r="1.5" fill="white"/>
<circle cx="28.5" cy="19.5" r="1.5" fill="white"/>
<circle cx="30.5" cy="23.5" r="1.5" fill="white"/>
<circle cx="33.5" cy="26.5" r="1.5" fill="white"/>
<circle cx="37.5" cy="28.5" r="1.5" fill="white"/>
<circle cx="41.5" cy="30.5" r="1.5" fill="white"/>
<circle cx="41.5" cy="34.5" r="1.5" fill="white"/>
<circle cx="38.5" cy="36.5" r="1.5" fill="white"/>
<circle cx="34.5" cy="36.5" r="1.5" fill="white"/>
<circle cx="30.5" cy="36.5" r="1.5" fill="white"/>
<circle cx="26.5" cy="36.5" r="1.5" fill="white"/>
<circle cx="22.5" cy="34.5" r="1.5" fill="white"/>
<circle cx="19.5" cy="31.5" r="1.5" fill="white"/>
<circle cx="16.5" cy="28.5" r="1.5" fill="white"/>
<circle cx="13.5" cy="25.5" r="1.5" fill="white"/>
<circle cx="2.5" cy="30.5" r="1.5" fill="white"/>
<circle cx="6.5" cy="30.5" r="1.5" fill="white"/>
<circle cx="10.5" cy="30.5" r="1.5" fill="white"/>
<circle cx="5.5" cy="36.5" r="1.5" fill="white"/>
<circle cx="9.5" cy="36.5" r="1.5" fill="white"/>
<circle cx="13.5" cy="36.5" r="1.5" fill="white"/>
<circle cx="17.5" cy="36.5" r="1.5" fill="white"/>
<circle cx="10.5" cy="22.5" r="1.5" fill="white"/>
<circle cx="7.5" cy="19.5" r="1.5" fill="white"/>
<circle cx="4.5" cy="16.5" r="1.5" fill="white"/>
</svg>
