<svg width="240" height="240" viewBox="0 0 240 240" fill="none" xmlns="http://www.w3.org/2000/svg">
<circle cx="120" cy="120" r="120" fill="#1A1A1A"/>
<g clip-path="url(#clip0_17_31634)">
<circle cx="97.9243" cy="75.8965" r="3.19243" fill="white"/>
<circle cx="104.948" cy="80.3659" r="3.19243" fill="white"/>
<circle cx="90.901" cy="80.3659" r="3.19243" fill="white"/>
<circle cx="87.0701" cy="87.3893" r="3.19243" fill="white"/>
<circle cx="108.779" cy="87.3893" r="3.19243" fill="white"/>
<circle cx="111.333" cy="95.6896" r="3.19243" fill="white"/>
<circle cx="84.5161" cy="95.6896" r="3.19243" fill="white"/>
<circle cx="83.2391" cy="103.99" r="3.19243" fill="white"/>
<circle cx="112.609" cy="103.99" r="3.19243" fill="white"/>
<circle cx="112.609" cy="113.567" r="3.19243" fill="white"/>
<circle cx="83.2391" cy="113.567" r="3.19243" fill="white"/>
<circle cx="87.0701" cy="122.506" r="3.19243" fill="white"/>
<circle cx="86.4316" cy="136.233" r="3.19243" fill="white"/>
<circle cx="109.417" cy="136.233" r="3.19243" fill="white"/>
<circle cx="108.779" cy="144.215" r="3.19243" fill="white"/>
<circle cx="87.0701" cy="144.215" r="3.19243" fill="white"/>
<circle cx="92.1779" cy="151.238" r="3.19243" fill="white"/>
<circle cx="103.032" cy="151.238" r="3.19243" fill="white"/>
<circle cx="97.9243" cy="136.233" r="3.19243" fill="white"/>
<circle cx="108.14" cy="122.506" r="3.19243" fill="white"/>
<circle cx="97.9243" cy="122.506" r="3.19243" fill="white"/>
<circle cx="141.98" cy="85.4738" r="3.19243" fill="white"/>
<circle cx="149.003" cy="89.9432" r="3.19243" fill="white"/>
<circle cx="134.956" cy="89.9432" r="3.19243" fill="white"/>
<circle cx="131.126" cy="96.9666" r="3.19243" fill="white"/>
<circle cx="152.834" cy="96.9666" r="3.19243" fill="white"/>
<circle cx="155.388" cy="105.267" r="3.19243" fill="white"/>
<circle cx="128.572" cy="105.267" r="3.19243" fill="white"/>
<circle cx="127.295" cy="113.567" r="3.19243" fill="white"/>
<circle cx="156.665" cy="113.567" r="3.19243" fill="white"/>
<circle cx="156.665" cy="123.145" r="3.19243" fill="white"/>
<circle cx="127.295" cy="123.145" r="3.19243" fill="white"/>
<circle cx="131.126" cy="132.083" r="3.19243" fill="white"/>
<circle cx="152.196" cy="132.083" r="3.19243" fill="white"/>
<circle cx="141.98" cy="132.083" r="3.19243" fill="white"/>
<circle cx="129.849" cy="146.13" r="3.19243" fill="white"/>
<circle cx="152.834" cy="146.13" r="3.19243" fill="white"/>
<circle cx="152.196" cy="154.111" r="3.19243" fill="white"/>
<circle cx="130.487" cy="154.111" r="3.19243" fill="white"/>
<circle cx="135.595" cy="161.134" r="3.19243" fill="white"/>
<circle cx="146.449" cy="161.134" r="3.19243" fill="white"/>
<circle cx="141.341" cy="146.13" r="3.19243" fill="white"/>
</g>
<defs>
<clipPath id="clip0_17_31634">
<rect width="107.266" height="107.266" fill="white" transform="translate(66 66)"/>
</clipPath>
</defs>
</svg>
